<svg width="30" height="30" viewBox="0 0 30 30" fill="none" xmlns="http://www.w3.org/2000/svg">
<circle cx="14.7074" cy="14.8843" r="4.81773" fill="url(#paint0_linear_149_58)"/>
<g filter="url(#filter0_b_149_58)">
<path d="M23.7203 11.7395L17.9433 10.8985L15.3608 5.6544C15.2903 5.51082 15.1742 5.39459 15.0309 5.32394C14.6714 5.14617 14.2345 5.29431 14.0548 5.6544L11.4723 10.8985L5.69521 11.7395C5.53594 11.7623 5.39032 11.8375 5.27883 11.9515C5.14404 12.0902 5.06977 12.2769 5.07233 12.4705C5.07489 12.6641 5.15407 12.8488 5.29248 12.9839L9.47226 17.0657L8.48476 22.8295C8.46161 22.9636 8.47642 23.1015 8.52752 23.2275C8.57862 23.3536 8.66397 23.4628 8.77389 23.5428C8.8838 23.6228 9.01388 23.6703 9.14939 23.6799C9.28489 23.6896 9.42039 23.6611 9.54051 23.5975L14.7078 20.8763L19.875 23.5975C20.0161 23.6728 20.1799 23.6978 20.3369 23.6705C20.7328 23.6021 20.9991 23.2261 20.9308 22.8295L19.9433 17.0657L24.1231 12.9839C24.2368 12.8722 24.3119 12.7264 24.3347 12.5668C24.3961 12.168 24.1185 11.7988 23.7203 11.7395Z" fill="url(#paint1_linear_149_58)"/>
<path d="M8.48476 22.8295L9.47226 17.0657L5.29248 12.9839C5.15407 12.8488 5.07489 12.6641 5.07233 12.4705C5.06977 12.2769 5.14404 12.0902 5.27883 11.9515M8.48476 22.8295L5.71006 12.3718M8.48476 22.8295L8.48479 22.8295L8.48476 22.8295ZM5.27883 11.9515L5.70929 12.3726C5.70954 12.3724 5.7098 12.3721 5.71006 12.3718M5.27883 11.9515C5.39032 11.8375 5.53594 11.7623 5.69521 11.7395L5.27883 11.9515ZM5.71006 12.3718C5.68694 12.3961 5.67404 12.4286 5.67449 12.4626C5.67495 12.4969 5.68898 12.5294 5.7132 12.553L5.71323 12.5531L9.89301 16.6349L10.1192 16.8558L10.0658 17.1674L9.07833 22.9312L9.0782 22.932C9.07416 22.9554 9.07675 22.9794 9.08563 23.0013C9.09452 23.0232 9.10929 23.0421 9.12816 23.0558C9.14702 23.0695 9.16924 23.0776 9.19229 23.0793C9.21534 23.0809 9.23844 23.0761 9.25897 23.0652L9.2599 23.0647L14.4272 20.3435L14.7078 20.1957L14.9884 20.3435L20.1557 23.0647L20.1584 23.0661C20.1786 23.0769 20.206 23.082 20.2336 23.0772L20.2345 23.077C20.3034 23.0651 20.3491 23 20.3373 22.9317L20.3372 22.9312L19.3497 17.1674L19.2963 16.8558L19.5226 16.6349L23.7012 12.5541C23.7013 12.554 23.7015 12.5539 23.7016 12.5537C23.7225 12.5331 23.7348 12.5078 23.7385 12.4818L23.7394 12.4751L23.7395 12.4752C23.7491 12.4125 23.7061 12.3465 23.6322 12.3353C23.6321 12.3352 23.6319 12.3352 23.6317 12.3352L17.8565 11.4945L17.543 11.4488L17.403 11.1646L14.8205 5.92045L14.8203 5.91993C14.8083 5.89553 14.7886 5.87593 14.7646 5.86411L14.7639 5.86376C14.7044 5.83431 14.627 5.85752 14.594 5.92249C14.5939 5.92278 14.5937 5.92308 14.5936 5.92337L12.0125 11.1646L11.8726 11.4488L11.559 11.4945L5.78197 12.3355L5.78052 12.3357C5.75537 12.3393 5.73061 12.3512 5.71006 12.3718Z" stroke="url(#paint2_linear_149_58)" stroke-width="1.20443"/>
</g>
<defs>
<filter id="filter0_b_149_58" x="-0.721059" y="-0.544607" width="30.8572" height="30.0197" filterUnits="userSpaceOnUse" color-interpolation-filters="sRGB">
<feFlood flood-opacity="0" result="BackgroundImageFix"/>
<feGaussianBlur in="BackgroundImageFix" stdDeviation="2.89666"/>
<feComposite in2="SourceAlpha" operator="in" result="effect1_backgroundBlur_149_58"/>
<feBlend mode="normal" in="SourceGraphic" in2="effect1_backgroundBlur_149_58" result="shape"/>
</filter>
<linearGradient id="paint0_linear_149_58" x1="9.50642" y1="20.286" x2="21.3514" y2="13.7324" gradientUnits="userSpaceOnUse">
<stop stop-color="#F3BE00"/>
<stop offset="1" stop-color="#FBEC65"/>
</linearGradient>
<linearGradient id="paint1_linear_149_58" x1="4.30581" y1="24.7989" x2="27.4906" y2="11.3882" gradientUnits="userSpaceOnUse">
<stop stop-color="#F3BE00"/>
<stop offset="1" stop-color="#FBEC65"/>
</linearGradient>
<linearGradient id="paint2_linear_149_58" x1="8.13988" y1="7.39619" x2="19.7777" y2="22.4651" gradientUnits="userSpaceOnUse">
<stop stop-color="white" stop-opacity="0.25"/>
<stop offset="1" stop-color="white" stop-opacity="0"/>
</linearGradient>
</defs>
</svg>
